<svg viewBox="16 17 21 21" fill="none" xmlns="http://www.w3.org/2000/svg">
<path d="M37 27.5C37 33.299 32.299 38 26.5 38C20.701 38 16 33.299 16 27.5C16 21.701 20.701 17 26.5 17C32.299 17 37 21.701 37 27.5Z" fill="#033778"/>
<path fill-rule="evenodd" clip-rule="evenodd" d="M26.092 31.4194C26.1207 31.4462 26.1505 31.474 26.1819 31.5031V31.5037C26.183 31.4856 26.184 31.4709 26.1849 31.4584C26.1864 31.4381 26.1874 31.4234 26.1874 31.4088L26.1875 30.2089V30.2088V30.2088C26.1877 28.2093 26.188 26.2101 26.1825 24.2105C26.1819 24.0907 26.1345 23.9561 26.0688 23.8546C25.5755 23.0887 24.8665 22.6059 24.0151 22.314C23.3712 22.0933 22.7063 22.0122 22.0304 22.0001C21.7308 21.9951 21.5366 22.1998 21.5366 22.5132C21.536 24.8229 21.536 27.1332 21.5366 29.4428C21.5366 29.7684 21.7225 29.9472 22.0503 29.9687L22.2242 29.98L22.2242 29.9801H22.2242C22.5699 30.0024 22.9159 30.0248 23.2576 30.0763C24.2452 30.2252 25.1435 30.5894 25.9066 31.2499C25.9677 31.303 26.027 31.3585 26.0918 31.4192L26.0919 31.4192L26.0919 31.4192L26.092 31.4194ZM20.8105 23.6333C20.32 23.5776 20.1694 23.6449 20.0006 23.9837H20V31.6317C20.1501 31.9484 20.314 32.035 20.6191 31.9865C20.7487 31.966 20.8783 31.945 21.0079 31.9241L21.0081 31.9241L21.0082 31.924L21.0082 31.924L21.0083 31.924C21.5129 31.8425 22.0175 31.761 22.5249 31.704C23.2637 31.6212 24.0058 31.6471 24.743 31.7492C24.9117 31.7727 25.0791 31.8032 25.2508 31.8344C25.3334 31.8495 25.417 31.8647 25.5022 31.8794C25.4959 31.8722 25.4905 31.8658 25.4858 31.8602C25.4761 31.8487 25.469 31.8401 25.4608 31.8331L25.4202 31.7977C25.3761 31.759 25.332 31.7204 25.2859 31.6841C24.6911 31.2123 24.0042 30.9431 23.2653 30.8167C22.9099 30.756 22.5479 30.7302 22.1867 30.7044L22.1864 30.7044C22.1143 30.6993 22.0423 30.6941 21.9704 30.6887C21.6067 30.6611 21.3071 30.521 21.0754 30.2374C20.8768 29.9946 20.81 29.7115 20.81 29.4042C20.8108 28.0014 20.8107 26.5982 20.8106 25.195V25.1949V25.1949L20.8105 23.7917V23.6333ZM26.9108 31.5037V31.331C26.9108 30.7691 26.9112 30.2073 26.9115 29.6455L26.9115 29.6432C26.9126 27.9044 26.9138 26.1656 26.9042 24.4267C26.9025 24.0885 27.0167 23.8297 27.2181 23.5803C27.8626 22.7847 28.7167 22.3449 29.7 22.1507C30.0911 22.0736 30.4925 22.0442 30.8921 22.015L31.0562 22.0028C31.3652 21.9797 31.5616 22.1971 31.5622 22.527C31.5625 23.7431 31.5624 24.9592 31.5623 26.1753L31.5622 27.9994L31.5623 28.4767C31.5624 28.7949 31.5625 29.1131 31.5622 29.4312C31.5616 29.7728 31.379 29.9609 31.0347 29.9665C30.2021 29.9803 29.3899 30.1005 28.6097 30.4035C28.011 30.6358 27.4736 30.9641 27.0134 31.4154C26.9959 31.4326 26.9771 31.4482 26.9519 31.4692C26.9398 31.4792 26.9263 31.4905 26.9108 31.5037ZM32.4328 23.6284C32.3855 23.63 32.3372 23.6316 32.2878 23.6316V23.8005C32.2878 24.2134 32.2879 24.6263 32.2879 25.0393C32.2881 26.4849 32.2883 27.9306 32.2862 29.3761C32.2862 29.5157 32.2806 29.6602 32.2442 29.7938C32.0997 30.3246 31.6803 30.6517 31.1302 30.6876C31.0559 30.6924 30.9814 30.6967 30.9069 30.701C30.6453 30.7161 30.3833 30.7313 30.1243 30.7665C29.3739 30.868 28.6627 31.0926 28.031 31.5252C27.927 31.5964 27.8283 31.6752 27.7296 31.7541C27.6853 31.7895 27.641 31.8249 27.5962 31.8596C28.9248 31.5848 30.243 31.6135 31.5628 31.8121C31.7343 31.838 31.9045 31.8713 32.0747 31.9046C32.2386 31.9367 32.4025 31.9688 32.5676 31.9942C32.8479 32.0372 33.0785 31.8358 33.0962 31.5522C33.098 31.5242 33.0979 31.4958 33.0978 31.4673C33.0978 31.4616 33.0978 31.4559 33.0978 31.4502V24.1735C33.0978 24.1663 33.0978 24.1591 33.0979 24.152C33.098 24.1163 33.0982 24.0809 33.0945 24.0455C33.0741 23.8435 32.9279 23.6637 32.7309 23.6355C32.6345 23.6215 32.5358 23.6249 32.4328 23.6284Z" fill="white"/>
</svg>
