<svg viewBox="11 10 29 32" fill="none" xmlns="http://www.w3.org/2000/svg">
<g>
<path fill-rule="evenodd" clip-rule="evenodd" d="M11.8611 40.9491C12.691 41.297 13.8487 41.0792 16.1641 40.6436L24.7105 39.0358C26.1067 38.7731 27.1666 38.5738 27.9659 38.3535C31.1092 38.1313 34.167 36.8349 36.5447 34.4572C41.8787 29.1232 41.7706 20.367 36.3033 14.8997C30.836 9.43233 22.0797 9.32423 16.7458 14.6582C14.368 17.036 13.0717 20.0937 12.8494 23.2371C12.6292 24.0364 12.4298 25.0962 12.1672 26.4924L10.5594 35.0389C10.1238 37.3543 9.90601 38.512 10.2538 39.3419C10.558 40.0677 11.1352 40.645 11.8611 40.9491Z" fill="#033778"/>
</g>
<path d="M28.0616 17.0732L28.8582 17.0732C28.8827 17.0798 28.9069 17.0888 28.9319 17.0929C30.4289 17.3432 31.4244 18.668 31.3802 20.0095C31.3757 20.1486 31.433 20.1964 31.557 20.2222C32.0949 20.3343 32.5604 20.5866 32.9595 20.9642C33.4573 21.4349 33.7348 22.0194 33.8531 22.6869L33.8531 23.4845C33.7643 23.979 33.5899 24.4379 33.2874 24.8428C33.2444 24.9001 33.2444 24.9528 33.2874 25.0101C33.5899 25.415 33.7647 25.8739 33.8535 26.3684L33.8535 27.166C33.8367 27.2405 33.822 27.3157 33.8036 27.3897C33.5056 28.5722 32.7655 29.3199 31.5873 29.6225C31.4244 29.6643 31.3798 29.7272 31.3794 29.8892C31.3782 30.8107 30.9991 31.5572 30.2983 32.1445C29.8799 32.4942 29.3887 32.6828 28.8582 32.7793L28.0616 32.7793C27.5196 32.6815 27.0251 32.4799 26.5957 32.1265C26.4962 32.0447 26.4536 31.9576 26.454 31.8267C26.4569 27.2265 26.4569 22.626 26.454 18.0258C26.454 17.8949 26.4962 17.8082 26.5957 17.726C27.0251 17.3722 27.52 17.1714 28.0616 17.0732Z" fill="white"/>
<path d="M23.1586 17.0732L23.9552 17.0732C24.4751 17.1685 24.952 17.3587 25.3741 17.6863C25.5136 17.7947 25.5787 17.9109 25.5632 18.0872C25.5497 18.2393 25.5603 18.3935 25.5603 18.5469C25.5603 19.4361 25.5566 20.3257 25.5636 21.2149C25.5648 21.3711 25.5161 21.421 25.3626 21.4133C25.1489 21.4018 24.9336 21.403 24.7195 21.4133C24.5877 21.4198 24.5234 21.3695 24.4628 21.2529C24.2045 20.7539 23.7804 20.4844 23.2249 20.4999C22.362 20.5237 21.7775 21.2533 21.9162 22.1057C22.0137 22.7037 22.5409 23.2419 23.2925 23.2186C23.8357 23.2019 24.2385 22.9241 24.4804 22.4321C24.5251 22.3413 24.5783 22.3029 24.6794 22.3053C24.909 22.311 25.1391 22.3143 25.3683 22.3045C25.5128 22.2984 25.5644 22.3433 25.5624 22.4935C25.555 23.0914 25.5554 23.6894 25.5624 24.2874C25.564 24.4326 25.5218 24.4825 25.3724 24.4808C24.7498 24.4739 24.1268 24.4743 23.5041 24.4808C23.369 24.4821 23.2986 24.4412 23.2344 24.3168C22.9761 23.8182 22.5503 23.5503 21.9944 23.5675C21.0799 23.5957 20.5658 24.4044 20.6816 25.1479C20.7877 25.8306 21.4831 26.3709 22.1627 26.2797C22.6699 26.2114 23.0313 25.9492 23.2577 25.496C23.2954 25.4212 23.3338 25.3733 23.4276 25.3737C24.0911 25.3766 24.7551 25.3766 25.4187 25.3737C25.5259 25.3733 25.5607 25.4158 25.5603 25.5193C25.5574 26.148 25.5574 26.7766 25.5603 27.4053C25.5607 27.5133 25.5169 27.5484 25.4142 27.5464C25.1894 27.5423 24.9647 27.5386 24.7404 27.548C24.6016 27.5542 24.5255 27.512 24.4571 27.3803C24.2021 26.8871 23.7796 26.6237 23.2303 26.6339C22.3686 26.6494 21.775 27.3967 21.9142 28.2499C22.0239 28.9231 22.7227 29.4364 23.392 29.346C23.8996 29.2777 24.2602 29.0135 24.4841 28.5587C24.5267 28.4724 24.5787 28.4384 24.6728 28.4405C24.9025 28.445 25.1325 28.4503 25.3618 28.4389C25.5153 28.4315 25.5632 28.481 25.5624 28.6372C25.5562 29.6953 25.557 30.753 25.5624 31.8112C25.5632 31.9531 25.5177 32.0476 25.4084 32.1363C24.9819 32.484 24.4919 32.6824 23.9552 32.7793C23.6896 32.7793 23.4243 32.7793 23.1586 32.7793C23.139 32.7736 23.1202 32.765 23.1001 32.7621C21.6043 32.5212 20.5928 31.2001 20.637 29.841C20.6419 29.6863 20.5646 29.6553 20.4418 29.6279C18.413 29.173 17.4866 26.8184 18.6664 25.107C18.7605 24.9708 18.7609 24.8837 18.6664 24.7467C17.494 23.0477 18.4028 20.7012 20.4106 20.2296C20.6325 20.1772 20.6309 20.1772 20.6337 19.9514C20.646 19.0479 21.0124 18.3121 21.6936 17.7289C22.1164 17.3669 22.6162 17.1726 23.1574 17.0736L23.1586 17.0732Z" fill="white"/>
<path d="M23.2554 27.5228C23.5219 27.5244 23.7249 27.733 23.7216 28.0021C23.7184 28.2684 23.5084 28.4701 23.239 28.4647C22.9795 28.4598 22.7801 28.2549 22.7805 27.9931C22.7805 27.7252 22.9873 27.5207 23.2558 27.5224L23.2554 27.5228Z" fill="white"/>
<path d="M22.0326 25.3974C21.7636 25.4003 21.5561 25.1974 21.5544 24.9299C21.5532 24.6612 21.7575 24.4551 22.0252 24.4551C22.2868 24.4551 22.491 24.6551 22.4955 24.9152C22.5 25.1852 22.299 25.3946 22.0326 25.3974Z" fill="white"/>
<path d="M22.7801 21.8593C22.7801 21.591 22.9856 21.3861 23.2542 21.3877C23.5211 21.3889 23.7241 21.5971 23.7217 21.8662C23.7188 22.1272 23.5166 22.3284 23.2554 22.3301C22.9869 22.3317 22.7806 22.1276 22.7806 21.8597L22.7801 21.8593Z" fill="white"/>
</svg>
