<svg width="16" height="16" viewBox="0 0 16 16" fill="none" xmlns="http://www.w3.org/2000/svg">
<path d="M10.1001 4.24775e-05L10.9116 4.24065e-05C10.9366 0.00658747 10.9612 0.0155854 10.9866 0.0196757C12.5115 0.269991 13.5256 1.59478 13.4806 2.93634C13.476 3.07541 13.5344 3.12326 13.6607 3.14903C14.2086 3.2611 14.6828 3.51346 15.0893 3.89098C15.5964 4.36175 15.8791 4.94623 15.9996 5.61374L15.9996 6.41131C15.9091 6.90581 15.7315 7.36472 15.4233 7.76964C15.3795 7.8269 15.3795 7.87966 15.4233 7.93693C15.7315 8.34185 15.9095 8.80076 16 9.29526L16 10.0928C15.9829 10.1673 15.9679 10.2425 15.9491 10.3166C15.6456 11.499 14.8917 12.2467 13.6916 12.5494C13.5256 12.5911 13.4802 12.6541 13.4798 12.816C13.4785 13.7375 13.0924 14.484 12.3785 15.0713C11.9524 15.421 11.452 15.6096 10.9116 15.7061L10.1001 15.7061C9.54805 15.6084 9.04434 15.4067 8.60692 15.0533C8.5056 14.9715 8.46223 14.8844 8.46265 14.7535C8.46557 10.1534 8.46557 5.5528 8.46265 0.952634C8.46265 0.821749 8.5056 0.735038 8.60692 0.652826C9.04434 0.299031 9.54847 0.0982061 10.1001 4.24775e-05Z" fill="currentColor"/>
<path d="M5.10573 7.26936e-05L5.91717 7.26226e-05C6.44674 0.0953733 6.93252 0.285564 7.36243 0.613182C7.50462 0.72157 7.57092 0.83773 7.55507 1.01402C7.54131 1.16617 7.55215 1.32036 7.55215 1.47374C7.55215 2.36294 7.5484 3.25254 7.55549 4.14173C7.55674 4.29797 7.50712 4.34787 7.35075 4.3401C7.13309 4.32865 6.91376 4.32988 6.69568 4.3401C6.56141 4.34665 6.49594 4.29634 6.43423 4.17977C6.17111 3.68077 5.73912 3.41124 5.17328 3.42678C4.29428 3.4505 3.69883 4.18018 3.84019 5.03256C3.93943 5.63054 4.4765 6.1688 5.24208 6.14548C5.79541 6.12871 6.20572 5.85099 6.45216 5.35895C6.49761 5.26815 6.55182 5.2297 6.65481 5.23216C6.88874 5.23789 7.12308 5.24116 7.35659 5.23134C7.50379 5.22521 7.55632 5.2702 7.55424 5.4203C7.54673 6.01828 7.54715 6.61626 7.55424 7.21423C7.55591 7.35943 7.51296 7.40933 7.36076 7.40769C6.72653 7.40074 6.09189 7.40115 5.45766 7.4077C5.32006 7.40892 5.24833 7.36802 5.18287 7.24368C4.91975 6.7451 4.48609 6.47719 3.91983 6.49437C2.9883 6.52259 2.46457 7.33121 2.58257 8.07479C2.69057 8.75744 3.39902 9.29774 4.09121 9.20653C4.60785 9.13823 4.97605 8.87605 5.20664 8.42286C5.245 8.34801 5.2842 8.30016 5.37968 8.30057C6.05561 8.30343 6.73195 8.30343 7.40788 8.30057C7.51713 8.30016 7.55257 8.3427 7.55216 8.44618C7.54924 9.07483 7.54924 9.70348 7.55216 10.3321C7.55257 10.4401 7.50796 10.4753 7.40329 10.4732C7.17437 10.4692 6.94545 10.4655 6.71694 10.4749C6.57559 10.481 6.49803 10.4389 6.42839 10.3072C6.16861 9.81391 5.73829 9.55051 5.1787 9.56074C4.30095 9.57628 3.69633 10.3235 3.8381 11.1767C3.94986 11.85 4.66164 12.3633 5.34341 12.2729C5.86046 12.2046 6.22782 11.9404 6.45591 11.4855C6.49928 11.3992 6.55223 11.3653 6.64814 11.3673C6.88207 11.3718 7.11641 11.3772 7.34992 11.3657C7.50629 11.3583 7.55507 11.4078 7.55424 11.5641C7.54799 12.6222 7.54882 13.6799 7.55424 14.738C7.55507 14.8799 7.50879 14.9744 7.39746 15.0632C6.96296 15.4108 6.46384 15.6092 5.91717 15.7061C5.64655 15.7061 5.37635 15.7061 5.10573 15.7061C5.08571 15.7004 5.06653 15.6918 5.0461 15.689C3.52245 15.4481 2.49209 14.127 2.53712 12.7678C2.54213 12.6132 2.46332 12.5821 2.33822 12.5547C0.271666 12.0999 -0.671964 9.7452 0.529775 8.03389C0.625681 7.89769 0.626098 7.81057 0.529775 7.67355C-0.664458 5.97452 0.26124 3.62801 2.30653 3.15642C2.53254 3.10407 2.53087 3.10407 2.53379 2.87829C2.5463 1.97478 2.91949 1.23897 3.61335 0.65572C4.04409 0.293744 4.55323 0.0994637 5.10448 0.000482774L5.10573 7.26936e-05Z" fill="currentColor"/>
<path d="M5.20422 10.4494C5.47567 10.451 5.6825 10.6596 5.67916 10.9287C5.67582 11.195 5.46191 11.3966 5.18754 11.3913C4.92317 11.3864 4.7201 11.1815 4.72052 10.9197C4.72052 10.6518 4.9311 10.4473 5.20464 10.449L5.20422 10.4494Z" fill="currentColor"/>
<path d="M3.95874 8.32422C3.68478 8.32708 3.47337 8.12421 3.47171 7.85672C3.47045 7.588 3.67853 7.38185 3.95123 7.38185C4.21768 7.38185 4.42576 7.58186 4.43034 7.84199C4.43493 8.11194 4.23019 8.32136 3.95874 8.32422Z" fill="currentColor"/>
<path d="M4.72012 4.7863C4.72012 4.51798 4.92944 4.31307 5.20298 4.31471C5.47486 4.31593 5.68168 4.52412 5.67918 4.79325C5.67626 5.0542 5.47027 5.25543 5.20424 5.25707C4.9307 5.25871 4.72054 5.05461 4.72054 4.78671L4.72012 4.7863Z" fill="currentColor"/>
</svg>
