<svg width="30" height="20" viewBox="0 0 30 20" fill="none" xmlns="http://www.w3.org/2000/svg">
<path d="M30 7.3333C29.9446 7.53011 29.8902 7.72788 29.833 7.92468C29.7213 8.30865 29.5333 8.45529 29.1315 8.45625C28.3498 8.45915 27.569 8.45625 26.7874 8.45818C26.7072 8.45818 26.6261 8.47072 26.4896 8.4823C26.5688 8.55176 26.5974 8.59035 26.6366 8.60771C27.2789 8.90003 27.5166 9.42484 27.5146 10.1088C27.508 12.1425 27.5127 14.1762 27.5127 16.2098C27.5127 17.1678 27.5146 18.1248 27.5127 19.0828C27.5118 19.7504 27.2703 19.9954 26.6156 19.9973C25.6287 19.9993 24.6427 19.9993 23.6559 19.9973C23.0011 19.9964 22.7568 19.7494 22.7549 19.0857C22.753 18.1672 22.7549 17.2498 22.7549 16.3314C22.7549 16.2252 22.7549 16.1191 22.7549 15.9995H7.23285C7.23285 16.3767 7.23285 16.7385 7.23285 17.1012C7.23285 17.7823 7.23667 18.4634 7.23094 19.1445C7.22617 19.7349 6.97134 19.9935 6.39008 19.9964C5.36406 20.0012 4.339 20.0012 3.31298 19.9964C2.73173 19.9935 2.47498 19.7349 2.47498 19.1426C2.47212 16.1114 2.47498 13.0812 2.47307 10.05C2.47307 9.38625 2.73363 8.88845 3.34925 8.60771C3.38742 8.59035 3.41606 8.55176 3.50196 8.47651C3.34925 8.46686 3.25953 8.45722 3.16886 8.45722C2.40722 8.45625 1.64558 8.45722 0.882981 8.45625C0.444895 8.45529 0.280731 8.31251 0.141384 7.89671C-0.0657293 7.28024 -0.0351873 6.67632 0.167153 6.0695C0.266415 5.77333 0.464938 5.61222 0.776084 5.61222C1.65512 5.61029 2.53416 5.60836 3.41319 5.61222C3.74725 5.61415 3.93336 5.76561 4.03453 6.08783C4.07271 6.20843 4.10898 6.32998 4.16625 6.51521C4.26932 6.23544 4.35331 6.01451 4.43349 5.79166C4.94125 4.37447 5.44519 2.95535 5.95677 1.53816C6.32327 0.525186 7.04674 0.00423069 8.11571 0.00326596C12.697 -0.0015577 17.2773 -0.00059297 21.8586 0.00326596C22.9429 0.00326596 23.6616 0.522292 24.0348 1.55649C24.5931 3.10199 25.1448 4.65038 25.7003 6.19781C25.7318 6.2856 25.7671 6.37243 25.8072 6.47662C25.8348 6.43128 25.8539 6.40716 25.8635 6.38111C26.0416 5.86852 26.4018 5.61222 26.9439 5.61222C27.6664 5.61222 28.3899 5.61126 29.1124 5.61222C29.5543 5.61318 29.7194 5.74149 29.8444 6.17659C29.8979 6.36471 29.9485 6.55283 30 6.74096V7.3333ZM23.8534 8.48326C23.8315 8.40512 23.82 8.35013 23.8009 8.29707C23.1395 6.44286 22.4714 4.59153 21.8205 2.73442C21.7422 2.51061 21.6057 2.52508 21.4387 2.52508C17.1418 2.52508 12.844 2.52797 8.54711 2.51929C8.3085 2.51929 8.21115 2.59454 8.13384 2.81643C7.60031 4.33974 7.05055 5.85726 6.50748 7.37672C6.37959 7.73463 6.25551 8.09448 6.11998 8.48326H23.8534ZM7.20708 10.4735C6.748 10.4735 6.28987 10.4687 5.83078 10.4745C5.17222 10.4841 4.69023 10.9424 4.67687 11.5617C4.66255 12.1984 5.12832 12.6934 5.80215 12.7069C6.72891 12.7252 7.65662 12.7233 8.58338 12.7078C9.26103 12.6963 9.72775 12.2139 9.72107 11.5752C9.71534 10.9414 9.23144 10.4822 8.55379 10.4735C8.10521 10.4677 7.65567 10.4725 7.20708 10.4735ZM22.8016 10.4735C22.3425 10.4735 21.8844 10.4687 21.4253 10.4745C20.763 10.4832 20.28 10.9356 20.2657 11.554C20.2504 12.1965 20.7076 12.6924 21.3814 12.7069C22.3177 12.7262 23.255 12.7262 24.1922 12.7069C24.8642 12.6924 25.328 12.1917 25.3099 11.555C25.2927 10.9366 24.8098 10.4841 24.1483 10.4754C23.6998 10.4696 23.2502 10.4745 22.8016 10.4745V10.4735Z" fill="#033778"/>
</svg>
