<svg viewBox="0 0 26 28" fill="none" xmlns="http://www.w3.org/2000/svg">
<path d="M19.0228 10.9008C19.46 10.3121 19.7672 9.53046 19.9137 8.78207C20.3102 6.75865 18.9292 5.3284 17.0802 5.84174C16.436 6.02025 15.7653 6.36949 15.2829 6.84846C13.2247 8.89183 12.619 11.3077 12.7038 14.6561C15.1585 13.9177 17.4381 13.0385 19.0228 10.9008Z" fill="#033778"/>
<path d="M17.4238 19.7763C14.4416 19.8051 12.9813 18.4114 12.7776 15.9822C12.7776 15.9822 16.6772 14.6218 17.8092 14.0963C17.9117 14.0486 18.0152 14.002 18.1176 13.9522C20.0998 12.9853 21.798 11.5795 22.7913 9.38644C23.984 6.75212 23.0457 3.76079 20.711 2.81616C19.3147 2.25071 17.9227 2.41923 16.5615 2.8727C13.3128 3.95592 10.7788 6.07691 8.92433 9.1148C7.25153 11.8556 6.38484 14.8402 7.08084 18.2119C7.61935 20.824 9.40668 22.6656 11.8702 22.9949C14.435 23.3375 17.6496 22.884 20.3124 21.6866C21.2319 20.6089 22.0171 19.4315 22.6592 18.1431C22.9477 17.5644 23.201 16.9734 23.4256 16.3714C22.7087 18.1786 19.4556 19.6698 17.4227 19.7763M15.2808 6.84858C15.7631 6.36961 16.4338 6.02036 17.078 5.84186C18.927 5.32852 20.308 6.75877 19.9115 8.78219C19.7651 9.53168 19.4567 10.3122 19.0206 10.901C17.4359 13.0386 15.1574 13.9178 12.7016 14.6562C12.6168 11.3067 13.2225 8.89084 15.2808 6.84747" fill="white"/>
<path d="M4.44675 16.2992C3.85868 16.4478 3.50187 17.0476 3.64944 17.6386C3.79701 18.2306 4.39279 18.5899 4.97976 18.4413C5.56782 18.2938 5.92463 17.6929 5.77706 17.102C5.62949 16.5099 5.03372 16.1507 4.44675 16.2992Z" fill="#033778"/>
<path d="M4.9797 18.4424C5.54905 18.2994 5.90035 17.7306 5.78802 17.1574C5.78472 17.1397 5.78141 17.1208 5.77701 17.1031C5.62944 16.511 5.03366 16.1518 4.44669 16.3004C3.93241 16.4301 3.59432 16.9057 3.61745 17.4191C3.62075 17.4922 3.63066 17.5665 3.64939 17.6408C3.79695 18.2329 4.39273 18.5921 4.9797 18.4435" fill="white"/>
<path d="M4.97978 18.4425C4.39171 18.591 3.79593 18.2307 3.64946 17.6398C3.5019 17.0488 3.8587 16.4479 4.44677 16.3004C5.03484 16.1518 5.63062 16.5111 5.77708 17.1031C5.92465 17.6952 5.56674 18.295 4.97978 18.4425ZM24.9895 2.09216C24.9895 1.99348 24.9444 1.95468 24.8563 1.92807C24.5942 1.84935 24.3354 1.75732 24.0733 1.6786C21.9148 1.02335 19.7167 0.556578 17.4768 0.284941C16.0496 0.111981 13.9363 0.0155221 12.5002 0C11.0642 0.0155221 8.952 0.111981 7.52477 0.284941C5.28482 0.556578 3.08672 1.02335 0.928267 1.6786C0.666169 1.75843 0.407375 1.84935 0.145276 1.92807C0.0571761 1.95468 0.0120248 1.99348 0.0120248 2.09216C0.00982227 3.68539 -0.0100003 5.27862 0.00651851 6.87185C0.0142273 7.69563 0.073695 8.52052 0.132061 9.34319C0.233377 10.7746 0.434906 12.1926 0.752067 13.594C1.10777 15.1706 1.61875 16.6929 2.34117 18.142C3.34992 20.1654 4.71217 21.9183 6.39158 23.4328C8.11615 24.9884 10.3242 26.2157 12.3978 27.2501C12.4276 27.2646 12.4617 27.2723 12.4958 27.2723H12.5068C12.541 27.2723 12.5751 27.2646 12.6049 27.2501C14.6785 26.2146 16.8865 24.9884 18.6111 23.4328C19.2212 22.8829 19.7894 22.2997 20.3136 21.6855C19.437 22.0802 18.4999 22.3917 17.5462 22.6235C15.6586 23.0814 13.705 23.2144 12.0179 23.0104C11.9694 23.0049 11.9199 23.0004 11.8725 22.9938C11.7844 22.9816 11.6996 22.9638 11.6137 22.9483C9.28568 22.5281 7.60296 20.7298 7.08317 18.2107C6.69223 16.3137 6.79464 14.5398 7.25717 12.8634C7.61728 11.5595 8.19433 10.3133 8.92667 9.11369C10.1458 7.11688 11.6611 5.51811 13.477 4.3484C13.9825 4.02244 14.5111 3.73085 15.064 3.47251C15.5463 3.24744 16.0441 3.04455 16.5628 2.87159C16.7147 2.82059 16.8667 2.77402 17.0198 2.73189C18.1541 2.41258 19.3082 2.32499 20.4667 2.72413C20.5482 2.75185 20.6297 2.78178 20.7123 2.81504C23.0469 3.75967 23.9852 6.751 22.7925 9.38532C21.8003 11.5784 20.1011 12.9842 18.1188 13.9521C18.0329 13.9943 17.9371 14.0386 17.838 14.083C17.8292 14.0874 17.8204 14.0907 17.8116 14.0952C16.6795 14.6207 12.78 15.9811 12.78 15.9811C12.8438 16.7406 13.0299 17.3981 13.3471 17.9435C14.0453 19.1432 15.3756 19.7951 17.4261 19.7752C17.4735 19.7729 17.5208 19.7685 17.5693 19.7652C17.5869 19.7641 17.6034 19.763 17.62 19.7618C17.6255 19.7618 17.631 19.7607 17.6354 19.7596C19.6749 19.5678 22.7353 18.1165 23.428 16.3703C23.428 16.3703 23.4269 16.3736 23.4258 16.3747C23.4258 16.3747 23.4269 16.3714 23.428 16.3703C23.7661 15.4667 24.0359 14.5398 24.2506 13.5929C24.5667 12.1915 24.7682 10.7734 24.8706 9.34208C24.929 8.51941 24.9884 7.69563 24.9962 6.87075C25.0127 5.27751 24.9928 3.68428 24.9906 2.09105" fill="#033778"/>
</svg>
