<svg width="40" height="40" viewBox="0 0 40 40" fill="none" xmlns="http://www.w3.org/2000/svg">
<rect width="40" height="40" rx="4" fill="#1877F2"/>
<path d="M33.1 20.4726C33.1065 18.051 32.4183 15.6784 31.1172 13.636C29.816 11.5936 27.9564 9.96724 25.759 8.94971C23.5615 7.93218 21.1183 7.56619 18.7191 7.89513C16.3199 8.22407 14.0654 9.23415 12.2229 10.8056C10.3804 12.377 9.02719 14.4439 8.32376 16.7611C7.62033 19.0783 7.59618 21.5487 8.25419 23.8792C8.91219 26.2097 10.2247 28.3026 12.0362 29.9098C13.8476 31.5169 16.082 32.5709 18.4743 32.9467V24.1213H15.2414V20.4726H18.4743V17.6868C18.4743 14.5163 20.3558 12.7595 23.2456 12.7595C24.1899 12.7731 25.1317 12.86 26.0626 13.0194V16.1379H24.4722C24.1989 16.103 23.9213 16.1295 23.6596 16.2155C23.3979 16.3015 23.1587 16.4449 22.9595 16.6352C22.7602 16.8254 22.606 17.0578 22.508 17.3152C22.4101 17.5727 22.3708 17.8488 22.3932 18.1234V20.4934H25.9171L25.3765 24.1109H22.3932V32.9571C25.3738 32.5 28.0923 30.9907 30.0563 28.7026C32.0204 26.4144 33.1001 23.4985 33.1 20.483V20.4726Z" fill="white"/>
</svg>
