<svg width="126" height="40" viewBox="0 0 126 40" fill="none" xmlns="http://www.w3.org/2000/svg">
<path fill-rule="evenodd" clip-rule="evenodd" d="M121.704 0H4.29639C1.93799 0 0 1.96415 0 4.35438V35.6456C0 38.0359 1.93799 40 4.29639 40H121.704C124.062 40 126 38.0359 126 35.6456V4.35438C126 1.96415 124.062 0 121.704 0Z" fill="#0077B5"/>
<path d="M53.5783 22.1772L56.8039 21.9382C56.876 22.5513 57.0203 23.019 57.2367 23.3308C57.5871 23.8504 58.0818 24.1102 58.7413 24.1102C59.2257 24.1102 59.5967 23.9751 59.8646 23.7153C60.1326 23.4451 60.2562 23.1437 60.2562 22.7904C60.2562 22.4578 60.1326 22.1564 59.8852 21.8966C59.6379 21.6368 59.0608 21.3874 58.1539 21.1484C56.6596 20.7639 55.6085 20.2338 54.9695 19.5895C54.3306 18.9452 54.0111 18.1138 54.0111 17.1058C54.0111 16.451 54.176 15.8275 54.5058 15.2351C54.8355 14.6428 55.3199 14.1855 55.9795 13.8426C56.639 13.51 57.5356 13.3437 58.6795 13.3437C60.081 13.3437 61.1528 13.6451 61.8948 14.2687C62.6368 14.8818 63.0696 15.8587 63.2139 17.1889L60.0192 17.4071C59.9368 16.8252 59.7513 16.3991 59.4833 16.1289C59.2051 15.8587 58.8341 15.734 58.3497 15.734C57.9581 15.734 57.6592 15.8379 57.4531 16.025C57.247 16.212 57.1543 16.4614 57.1543 16.742C57.1543 16.9499 57.2367 17.1265 57.4016 17.2928C57.5562 17.4591 57.9375 17.615 58.5352 17.7709C60.0192 18.145 61.0807 18.5295 61.7196 18.914C62.3585 19.2985 62.8326 19.7662 63.1212 20.3378C63.4097 20.8989 63.554 21.5433 63.554 22.2396C63.554 23.0606 63.3582 23.8296 62.9666 24.5259C62.575 25.2222 62.0288 25.7522 61.328 26.1159C60.6272 26.4796 59.7513 26.6563 58.6795 26.6563C56.8142 26.6563 55.5157 26.2302 54.7943 25.3884C54.0832 24.5467 53.671 23.4762 53.5783 22.1772ZM11.264 16.3367H15.6232V29.5246H11.264V16.3367ZM18.5293 16.3367H22.5485V18.4152H22.6103C23.1668 17.4071 24.5374 16.3367 26.5779 16.3367C30.8238 16.3367 31.607 18.9972 31.607 22.4682V29.5246H27.4127V23.2684C27.4127 21.7719 27.3817 19.8597 25.2279 19.8597C23.0431 19.8597 22.7134 21.4809 22.7134 23.1645V29.535H18.5293V16.3367ZM15.6232 12.6682C15.6232 13.8841 14.6442 14.861 13.4384 14.861C12.2327 14.861 11.2537 13.8737 11.2537 12.6682C11.2537 11.4627 12.2327 10.4755 13.4384 10.4755C14.6442 10.4755 15.6232 11.4627 15.6232 12.6682ZM65.0586 13.562H68.4491V18.0618H72.1694V13.562H75.5805V26.4381H72.1694V21.2211H68.4491V26.4381H65.0586V13.562ZM84.6081 24.3076H80.7538L80.1973 26.4277H76.7244L80.8672 13.5516H84.5875L88.7097 26.4277H85.1543L84.6081 24.3076ZM83.897 21.5225L82.6913 16.8979L81.4855 21.5225H83.897ZM89.8433 26.4381V13.562H95.5113C96.5624 13.562 97.3663 13.6659 97.9125 13.8841C98.4689 14.092 98.9224 14.4869 99.2522 15.0585C99.5922 15.63 99.7674 16.3263 99.7674 17.1473C99.7674 17.8644 99.6335 18.4775 99.3758 18.9972C99.1182 19.5168 98.7575 19.9429 98.3041 20.265C98.0155 20.4729 97.6136 20.6391 97.1086 20.7742C97.5105 20.9301 97.8094 21.086 97.9949 21.2523C98.1186 21.3562 98.3041 21.5848 98.5411 21.9278C98.7781 22.2707 98.9327 22.5409 99.0151 22.728L100.664 26.4484H96.8201L95.0063 22.5202C94.7693 22.0109 94.5735 21.6784 94.388 21.5329C94.1406 21.3354 93.8624 21.2315 93.5532 21.2315H93.2544V26.4484H89.8433V26.4381ZM93.2544 18.7893H94.6868C94.8414 18.7893 95.1403 18.727 95.5937 18.6126C95.8204 18.5607 96.0059 18.4256 96.1399 18.2073C96.2842 17.9891 96.3563 17.7397 96.3563 17.4591C96.3563 17.0434 96.243 16.7212 96.0162 16.503C95.7895 16.2848 95.367 16.1704 94.7487 16.1704H93.2544V18.7893ZM101.756 13.562H110.856V16.3159H105.168V18.3632H110.434V20.9925H105.168V23.5282H111.021V26.4381H101.756V13.562Z" fill="white"/>
<path d="M41.902 0V39.9896H39.439V0H41.902Z" fill="#006BA3"/>
</svg>
