<svg width="32" height="19" viewBox="0 0 32 19" fill="none" xmlns="http://www.w3.org/2000/svg">
<path fill-rule="evenodd" clip-rule="evenodd" d="M0.29741 0H1.57477C1.73935 0 1.87218 0.133667 1.87218 0.29741V1.56307C1.87218 1.72765 2.00585 1.86048 2.16959 1.86048H29.8287C29.9933 1.86048 30.1261 1.72682 30.1261 1.56307V0.318296C30.1261 0.153718 30.2598 0.0208855 30.4236 0.0208855H31.7026C31.8672 0.0208855 32 0.154553 32 0.318296V5.30576C32 5.47034 31.8663 5.60317 31.7026 5.60317H30.4461C30.2815 5.60317 30.1487 5.46951 30.1487 5.30576V4.06683C30.1487 3.90226 30.015 3.76942 29.8513 3.76942H2.18129C2.01671 3.76942 1.88388 3.90309 1.88388 4.06683V5.33083C1.88388 5.4954 1.75021 5.62824 1.58647 5.62824H0.29741C0.132832 5.62824 0 5.49457 0 5.33083V0.29741C0 0.133667 0.133667 0 0.29741 0ZM0.29741 7.50379H2.06266C2.22723 7.50379 2.36007 7.63746 2.36007 7.8012V12.8129C2.36007 12.9775 2.49373 13.1103 2.65748 13.1103H3.93734C4.10192 13.1103 4.23475 12.9766 4.23475 12.8129V7.82209C4.23475 7.65751 4.36842 7.52468 4.53216 7.52468H6.28906C6.45363 7.52468 6.58647 7.65835 6.58647 7.82209V10.9315C6.58647 11.0961 6.72013 11.2289 6.88388 11.2289H8.17377C8.33835 11.2289 8.47118 11.0953 8.47118 10.9315V7.81207C8.47118 7.64749 8.60485 7.51466 8.76859 7.51466H10.5238C10.6884 7.51466 10.8212 7.64832 10.8212 7.81207V12.8171C10.8212 12.9817 10.9549 13.1145 11.1186 13.1145H12.3985C12.5631 13.1145 12.6959 12.9808 12.6959 12.8171V7.81791C12.6959 7.65334 12.8296 7.5205 12.9933 7.5205H14.7561C14.9206 7.5205 15.0535 7.65417 15.0535 7.81791V10.9315C15.0535 11.0961 15.1871 11.2289 15.3509 11.2289H16.6358C16.8003 11.2289 16.9332 11.0953 16.9332 10.9315V7.81791C16.9332 7.65334 17.0668 7.5205 17.2306 7.5205H19.0042C19.1688 7.5205 19.3016 7.65417 19.3016 7.81791V12.8171C19.3016 12.9817 19.4353 13.1145 19.599 13.1145H20.8789C21.0434 13.1145 21.1763 12.9808 21.1763 12.8171V7.81708C21.1763 7.6525 21.3099 7.51967 21.4737 7.51967H23.2256C23.3901 7.51967 23.523 7.65334 23.523 7.81708V10.9374C23.523 11.102 23.6566 11.2348 23.8204 11.2348H25.1044C25.269 11.2348 25.4018 11.1011 25.4018 10.9374V7.81791C25.4018 7.65334 25.5355 7.5205 25.6992 7.5205H27.4653C27.6299 7.5205 27.7627 7.65417 27.7627 7.81791V12.8096C27.7627 12.9741 27.8964 13.107 28.0602 13.107H29.34C29.5046 13.107 29.6374 12.9733 29.6374 12.8096V7.82376C29.6374 7.65918 29.7711 7.52635 29.9348 7.52635H31.6867C31.8513 7.52635 31.9841 7.66002 31.9841 7.82376V14.7085C31.9841 14.8731 31.8505 15.0059 31.6867 15.0059H0.29741C0.132832 15.0059 0 14.8722 0 14.7085V7.80204C0 7.63746 0.133667 7.50463 0.29741 7.50463V7.50379ZM0.29741 16.8847H31.6976C31.8618 16.8847 31.995 17.0179 31.995 17.1821V18.4637C31.995 18.6279 31.8618 18.7611 31.6976 18.7611H0.29741C0.133155 18.7611 0 18.6279 0 18.4637V17.1821C0 17.0179 0.133155 16.8847 0.29741 16.8847Z" fill="#033778"/>
</svg>
