<svg width="40" height="40" viewBox="0 0 40 40" fill="none" xmlns="http://www.w3.org/2000/svg">
<rect width="40" height="40" rx="4" fill="#1DA1F2"/>
<path d="M32.2222 13.2114C31.406 13.5758 30.5245 13.8115 29.6104 13.9187C30.5463 13.3615 31.2754 12.4828 31.6128 11.4326C30.7313 11.947 29.7519 12.322 28.718 12.5256C27.8801 11.6576 26.7048 11.1111 25.388 11.1111C22.8741 11.1111 20.8282 13.115 20.8282 15.6011C20.8282 15.9547 20.8717 16.2976 20.9479 16.6191C17.1607 16.4262 13.798 14.6474 11.5562 11.9255C11.1536 12.6113 10.9359 13.3936 10.9359 14.1866C10.9359 15.7404 11.7412 17.1228 12.9601 17.9157C12.2092 17.8943 11.5127 17.6907 10.8924 17.3585V17.4121C10.8924 19.5874 12.4595 21.3984 14.5489 21.8164C14.168 21.9235 13.7654 21.9771 13.3518 21.9771C13.058 21.9771 12.7751 21.945 12.4921 21.9021C13.0798 23.6809 14.7557 24.9776 16.7472 25.0204C15.1801 26.2313 13.2212 26.9386 11.0883 26.9386C10.7183 26.9386 10.3591 26.9172 10 26.8743C12.0242 28.1495 14.4183 28.8889 16.9866 28.8889C25.3662 28.8889 29.9586 22.0521 29.9586 16.1155C29.9586 15.9226 29.9586 15.7297 29.9478 15.5368C30.8401 14.9046 31.6128 14.1116 32.2222 13.2114Z" fill="white"/>
</svg>
